<?xml version="1.0" encoding="utf-8"?>
<!-- Generator: Adobe Illustrator 24.3.0, SVG Export Plug-In . SVG Version: 6.00 Build 0)  -->
<svg version="1.1" id="Layer_1" xmlns="http://www.w3.org/2000/svg" xmlns:xlink="http://www.w3.org/1999/xlink" x="0px" y="0px"
	 viewBox="0 0 612 792" style="enable-background:new 0 0 612 792;" xml:space="preserve">
<style type="text/css">
	.st0{fill:#F285B5;stroke:#000000;stroke-miterlimit:10;}
	.st1{fill:#F5A8CA;stroke:#EE2A7B;stroke-width:7;stroke-miterlimit:10;}
	.st2{fill:#8DC63F;stroke:#EC008C;stroke-width:4;stroke-miterlimit:10;}
	.st3{fill:#8DC63F;stroke:#EC008C;stroke-width:3;stroke-miterlimit:10;}
	.st4{fill:none;}
	.st5{fill:#EC008C;stroke:#EC008C;stroke-width:3;stroke-miterlimit:10;}
	.st6{font-family:'Superclarendon-Light';}
	.st7{font-size:25px;}
	.st8{stroke:#EC008C;stroke-width:2;stroke-miterlimit:10;}
	.st9{font-size:20px;}
	.st10{fill:#8DC63F;stroke:#EC008C;stroke-width:2;stroke-miterlimit:10;}
</style>
<rect class="st0" width="612" height="792"/>
<ellipse class="st1" cx="239.71" cy="265.08" rx="174.16" ry="84.83"/>
<polygon class="st2" points="149.98,256.97 131.2,254.82 118.07,268.4 115.14,250.64 98.01,243.47 114.97,234.65 117.52,216.63 
	130.93,228.93 149.64,224.97 140.96,241.39 "/>
<polygon class="st3" points="183.38,223.2 172.24,222.25 165.72,231.33 162.52,219.93 151.91,215.69 161.07,209.6 161.04,197.9 
	169.9,205.54 180.49,202.54 176.81,213.35 "/>
<rect x="202.93" y="231.93" class="st4" width="165.17" height="66.29"/>
<text transform="matrix(1 0 0 1 202.9326 251.1577)"><tspan x="0" y="0" class="st5 st6 st7">Polly </tspan><tspan x="0" y="30" class="st5 st6 st7">Pocket</tspan></text>
<rect x="173.72" y="286.99" class="st4" width="151.69" height="35.96"/>
<text transform="matrix(1 0 0 1 173.7192 302.3687)" class="st8 st6 st9">Rock On!</text>
<polygon class="st10" points="386.58,288.87 378.67,282.76 369.2,285.98 372.5,276.37 366.63,268.21 376.59,268.38 382.43,260.11 
	385.28,269.83 394.76,272.88 386.57,278.71 "/>
<polygon class="st10" points="358.16,304.61 349.49,303.9 343.99,310.64 341.98,302.17 333.87,299.02 341.31,294.5 341.8,285.81 
	348.4,291.48 356.81,289.27 353.45,297.29 "/>
</svg>
